<?xml version="1.0" standalone="no"?>
<!DOCTYPE svg PUBLIC "-//W3C//DTD SVG 20010904//EN"
 "http://www.w3.org/TR/2001/REC-SVG-20010904/DTD/svg10.dtd">
<svg version="1.0" xmlns="http://www.w3.org/2000/svg"
 width="60.000000pt" height="60.000000pt" viewBox="0 0 60.000000 60.000000"
 preserveAspectRatio="xMidYMid meet">

<g transform="translate(0.000000,60.000000) scale(0.100000,-0.100000)"
fill="#000000" stroke="none">
<path d="M240 551 c-14 -5 -40 -15 -57 -24 -18 -10 -50 -17 -71 -17 -66 0 -72
-14 -72 -183 0 -184 2 -187 118 -187 l78 0 13 -36 c19 -52 66 -72 129 -55 68
18 110 54 143 125 86 182 -30 389 -217 385 -22 0 -50 -4 -64 -8z m136 -42 c57
-17 121 -93 138 -162 5 -21 2 -29 -10 -34 -15 -6 -15 -7 1 -19 22 -17 12 -44
-16 -44 -21 0 -21 -1 -5 -19 21 -23 12 -51 -16 -43 -18 4 -19 3 -7 -16 11 -18
10 -24 -5 -41 -25 -27 -78 -51 -114 -51 -55 0 -81 52 -45 92 20 22 46 23 67 2
22 -21 11 -36 -21 -28 -21 6 -24 3 -21 -12 4 -23 52 -31 74 -13 8 6 14 24 14
40 0 34 -32 59 -77 59 l-33 0 0 125 c0 120 -1 127 -24 150 l-24 24 22 4 c24 4
56 0 102 -14z m-122 -45 c24 -23 23 -255 -1 -279 -22 -22 -159 -18 -173 5 -5
8 -10 70 -10 137 0 149 2 153 100 153 49 0 73 -4 84 -16z"/>
<path d="M373 353 c-7 -2 -13 -9 -13 -15 0 -6 6 -8 13 -5 7 3 19 -3 25 -14 13
-20 42 -16 42 7 0 11 -43 38 -53 33 -1 0 -8 -3 -14 -6z"/>
<path d="M110 410 c0 -22 2 -40 5 -40 7 0 115 72 115 76 0 2 -27 4 -60 4 l-60
0 0 -40z"/>
<path d="M173 377 c-35 -23 -63 -48 -63 -54 0 -19 6 -17 71 27 32 23 59 47 59
55 0 19 6 21 -67 -28z"/>
<path d="M171 289 l-54 -39 61 0 62 0 0 40 c0 22 -3 40 -7 39 -5 0 -32 -18
-62 -40z"/>
<path d="M165 219 c-10 -15 3 -25 16 -12 7 7 7 13 1 17 -6 3 -14 1 -17 -5z"/>
</g>
</svg>
